HIERARCHY
ROOT Hips
{
	OFFSET 0.000000 0.000000 0.000000
	CHANNELS 6 Xposition Yposition Zposition Xrotation Yrotation Zrotation
	JOINT LeftUpLeg_virtual
	{
		OFFSET 0.000000 0.000000 0.000000
		CHANNELS 3 Xrotation Yrotation Zrotation
		JOINT LeftUpLeg
		{
			OFFSET 11.394100 -6.187798 -0.413800
			CHANNELS 3 Xrotation Yrotation Zrotation
			JOINT LeftLeg
			{
				OFFSET 0.430247 -32.302673 3.732800
				CHANNELS 3 Xrotation Yrotation Zrotation
				JOINT LeftFoot
				{
					OFFSET -0.430247 -48.264931 -6.423300
					CHANNELS 3 Xrotation Yrotation Zrotation
					JOINT LeftToeBase
					{
						OFFSET 4.230900 -16.068199 23.438400
						CHANNELS 3 Xrotation Yrotation Zrotation
						JOINT LeftToe_End
						{
							OFFSET 4.510700 0.695400 19.974600
							CHANNELS 3 Xrotation Yrotation Zrotation
							End Site
							{
								OFFSET 0 0 0
							}
						}
					}
				}
			}
		}
	}
	JOINT RightUpLeg_virtual
	{
		OFFSET 0.000000 0.000000 0.000000
		CHANNELS 3 Xrotation Yrotation Zrotation
		JOINT RightUpLeg
		{
			OFFSET -11.333700 -6.187798 -0.413800
			CHANNELS 3 Xrotation Yrotation Zrotation
			JOINT RightLeg
			{
				OFFSET -0.430392 -32.302628 3.733000
				CHANNELS 3 Xrotation Yrotation Zrotation
				JOINT RightFoot
				{
					OFFSET 0.430392 -48.264973 -6.423500
					CHANNELS 3 Xrotation Yrotation Zrotation
					JOINT RightToeBase
					{
						OFFSET -4.230900 -16.068199 23.438400
						CHANNELS 3 Xrotation Yrotation Zrotation
						JOINT RightToe_End
						{
							OFFSET -4.510700 0.695400 19.974600
							CHANNELS 3 Xrotation Yrotation Zrotation
							End Site
							{
								OFFSET 0 0 0
							}
						}
					}
				}
			}
		}
	}
	JOINT Spine_virtual
	{
		OFFSET 0.000000 0.000000 0.000000
		CHANNELS 3 Xrotation Yrotation Zrotation
		JOINT Spine
		{
			OFFSET -0.002400 12.777504 0.315300
			CHANNELS 3 Xrotation Yrotation Zrotation
			JOINT Spine1
			{
				OFFSET -0.002067 5.816869 0.032633
				CHANNELS 3 Xrotation Yrotation Zrotation
				JOINT Spine1_split
				{
					OFFSET -0.002067 5.816869 0.032633
					CHANNELS 3 Xrotation Yrotation Zrotation
					JOINT Spine2
					{
						OFFSET -0.002067 5.816869 0.032633
						CHANNELS 3 Xrotation Yrotation Zrotation
						JOINT Neck_virtual
						{
							OFFSET 0.000000 0.000000 0.000000
							CHANNELS 3 Xrotation Yrotation Zrotation
							JOINT Neck
							{
								OFFSET -0.003700 21.199493 -0.826900
								CHANNELS 3 Xrotation Yrotation Zrotation
								JOINT Head
								{
									OFFSET 0.000000 20.442200 4.834800
									CHANNELS 3 Xrotation Yrotation Zrotation
									JOINT HeadTop_End
									{
										OFFSET 0.000000 34.668396 4.968400
										CHANNELS 3 Xrotation Yrotation Zrotation
										End Site
										{
											OFFSET 0 0 0
										}
									}
								}
							}
						}
						JOINT LeftShoulder_virtual
						{
							OFFSET 0.000000 0.000000 0.000000
							CHANNELS 3 Xrotation Yrotation Zrotation
							JOINT LeftShoulder
							{
								OFFSET 3.288150 8.794197 -1.372250
								CHANNELS 3 Xrotation Yrotation Zrotation
								JOINT LeftShoulder_split
								{
									OFFSET 3.288150 8.794197 -1.372250
									CHANNELS 3 Xrotation Yrotation Zrotation
									JOINT LeftArm
									{
										OFFSET 11.953299 -2.279007 -0.146200
										CHANNELS 3 Xrotation Yrotation Zrotation
										JOINT LeftForeArm
										{
											OFFSET 18.448900 0.000000 0.000000
											CHANNELS 3 Xrotation Yrotation Zrotation
											JOINT LeftHand
											{
												OFFSET 29.527798 0.000000 0.000000
												CHANNELS 3 Xrotation Yrotation Zrotation
												End Site
												{
													OFFSET 0 0 0
												}
											}
										}
									}
								}
							}
						}
						JOINT RightShoulder_virtual
						{
							OFFSET 0.000000 0.000000 0.000000
							CHANNELS 3 Xrotation Yrotation Zrotation
							JOINT RightShoulder
							{
								OFFSET -3.249400 8.794197 -1.372250
								CHANNELS 3 Xrotation Yrotation Zrotation
								JOINT RightShoulder_split
								{
									OFFSET -3.249400 8.794197 -1.372250
									CHANNELS 3 Xrotation Yrotation Zrotation
									JOINT RightArm
									{
										OFFSET -11.953299 -2.279007 -0.146200
										CHANNELS 3 Xrotation Yrotation Zrotation
										JOINT RightForeArm
										{
											OFFSET -18.448900 0.000000 0.000000
											CHANNELS 3 Xrotation Yrotation Zrotation
											JOINT RightHand
											{
												OFFSET -29.527802 0.000000 0.000000
												CHANNELS 3 Xrotation Yrotation Zrotation
												End Site
												{
													OFFSET 0 0 0
												}
											}
										}
									}
								}
							}
						}
					}
				}
			}
		}
	}
}
MOTION
Frames: 7
Frame Time: 0.03333333
-7.694360 92.368538 39.882229 0.000000 0.000000 0.000000 28.042434 7.316043 -18.772497 -83.540447 -5.873224 13.798048 27.502047 9.938570 -5.181664 30.528517 -3.605916 8.066398 -2.164993 0.815244 0.328540 0.000000 0.000000 0.000000 28.516586 11.009932 -20.489010 7.076823 -24.665618 -13.189375 65.882338 5.566138 -1.684278 28.430428 -0.609150 12.875982 14.336249 0.270362 2.529758 0.000000 0.000000 0.000000 27.922174 8.314146 -20.569466 6.113832 12.838981 -7.713322 12.088471 11.739545 -7.268695 1.734017 1.957630 0.275214 0.000000 0.000000 0.000000 12.005847 11.024349 -7.584798 -11.089888 -6.658131 7.086364 -26.525682 -32.728047 19.305414 0.000000 0.000000 0.000000 11.577120 11.789590 -7.594712 0.012556 5.730877 5.488122 -3.894417 -0.494717 -0.971026 32.033314 -41.438273 -15.431311 0.555653 -29.345378 -0.709581 0.000000 0.000000 0.000000 11.656362 11.075734 -8.102751 5.150061 14.266298 -6.659332 0.165481 4.286715 -0.610326 -18.012556 58.642905 33.396924 -2.065818 41.082184 0.054110 0.000000 0.000000 0.000000 
-8.125697 91.992615 41.554615 0.000000 0.000000 0.000000 26.192806 8.227234 -18.051987 -83.688040 -5.851791 14.074287 32.287769 9.031291 -6.595861 27.352047 -3.982081 8.185280 -1.849995 0.761931 0.133799 0.000000 0.000000 0.000000 26.535188 11.362885 -19.569245 2.038717 -24.317309 -12.938848 63.899445 5.445761 -1.998307 27.576196 -0.977326 9.957245 14.093647 0.262428 2.681099 0.000000 0.000000 0.000000 25.808000 8.492241 -19.760547 6.023899 11.440086 -8.025255 12.537063 10.843740 -7.390259 1.399229 2.104416 0.260005 0.000000 0.000000 0.000000 12.255664 10.246117 -7.718957 -11.411291 -6.423775 6.543561 -26.732481 -32.423779 19.756696 0.000000 0.000000 0.000000 11.608438 11.074068 -7.712043 0.146423 5.153972 6.391991 -3.887438 -1.404437 -1.706364 30.162361 -43.787585 -7.944637 0.831167 -27.650407 -0.427516 0.000000 0.000000 0.000000 11.893583 10.368328 -8.140530 4.921676 13.632008 -5.760144 0.745918 3.289434 -0.422616 -17.448649 54.690093 27.295972 -2.002703 39.855182 0.265278 0.000000 0.000000 0.000000 
-8.458700 92.011024 43.290672 0.000000 0.000000 0.000000 24.538699 8.903928 -17.414300 -83.290271 -5.516989 14.330683 36.497874 8.098516 -7.526123 24.244631 -4.219033 8.291603 -1.365444 0.766227 -0.215401 0.000000 0.000000 0.000000 24.563575 11.837483 -18.880770 -2.770640 -24.175243 -12.730310 61.135247 5.346640 -2.273981 26.752852 -1.018421 6.447188 13.306236 0.399881 3.206199 0.000000 0.000000 0.000000 23.668629 8.637500 -19.107818 5.978465 10.033288 -8.336767 12.984753 9.661224 -7.494404 1.278100 2.026293 0.197368 0.000000 0.000000 0.000000 12.581796 9.186761 -7.857369 -11.698777 -6.273047 6.009104 -26.487764 -31.839415 20.358217 0.000000 0.000000 0.000000 11.766112 10.031752 -7.809847 0.285058 4.498513 7.069831 -3.732554 -2.129076 -2.312017 26.676077 -46.881363 -2.028128 1.040860 -25.230791 -0.071668 0.000000 0.000000 0.000000 12.282083 9.374950 -8.188378 4.883845 13.182432 -5.871453 1.079619 2.286040 -0.419581 -17.397187 51.420704 22.466022 -1.872799 37.630121 0.419519 0.000000 0.000000 0.000000 
-8.674396 92.332413 45.052345 0.000000 0.000000 0.000000 22.923042 9.400411 -16.888770 -82.158235 -4.860312 14.680829 40.247709 7.180295 -7.904614 21.309897 -4.237195 8.295898 -1.460636 0.808578 -0.630035 0.000000 0.000000 0.000000 22.564925 12.339211 -18.399403 -7.615810 -24.248478 -12.889679 57.984918 5.548070 -2.702978 26.779592 -0.319091 3.666360 10.177372 0.500326 4.093115 0.000000 0.000000 0.000000 21.543706 8.854176 -18.608376 6.004106 8.471971 -8.677293 13.443658 8.103205 -7.509194 1.308197 1.948388 0.101066 0.000000 0.000000 0.000000 12.959606 7.732475 -7.894009 -11.847795 -6.150931 5.561101 -25.687839 -30.742579 21.163678 0.000000 0.000000 0.000000 12.083848 8.562500 -7.830729 0.405444 3.775417 7.486314 -3.620064 -2.386223 -2.635677 21.173071 -50.310101 1.630013 1.080305 -22.128875 0.282544 0.000000 0.000000 0.000000 12.776745 7.966359 -8.160770 5.000463 12.847921 -6.991338 1.194890 1.562967 -0.627330 -17.156406 48.850507 18.117569 -1.681758 35.369868 0.469444 0.000000 0.000000 0.000000 
-8.801520 92.806824 47.065392 0.000000 0.000000 0.000000 21.223770 9.570965 -16.463266 -80.428544 -3.847007 15.306372 43.789572 6.329714 -7.762168 18.388821 -3.981725 8.338092 -1.959077 0.839752 -1.088505 0.000000 0.000000 0.000000 20.575962 12.720993 -18.070594 -12.322982 -24.412896 -13.473154 54.128392 6.088215 -3.287957 27.258959 1.143660 2.078841 5.679570 0.421182 5.302941 0.000000 0.000000 0.000000 19.353903 9.126703 -18.300887 6.095108 6.692369 -9.034010 13.888701 6.194270 -7.394924 1.471366 1.847702 -0.089478 0.000000 0.000000 0.000000 13.315101 5.893454 -7.771300 -11.795306 -5.986317 5.207609 -24.415379 -29.067233 22.155961 0.000000 0.000000 0.000000 12.534494 6.661162 -7.713108 0.480797 3.044661 7.756751 -3.408218 -2.325095 -2.546339 13.602564 -53.371317 2.603683 0.878013 -18.840855 0.570274 0.000000 0.000000 0.000000 13.324621 6.141456 -8.032874 5.213535 12.442037 -8.918105 1.252083 1.035768 -0.852484 -17.112117 46.911925 14.212521 -1.489176 34.047305 0.443440 0.000000 0.000000 0.000000 
-8.801877 93.315063 49.140724 0.000000 0.000000 0.000000 19.387552 9.442699 -16.209871 -78.178755 -2.562030 16.272396 46.983475 5.558646 -7.208326 15.227089 -3.520217 8.471264 -2.412546 0.842520 -1.482892 0.000000 0.000000 0.000000 18.661750 12.844838 -17.872302 -16.471544 -24.520029 -14.216110 49.110747 6.748868 -3.908830 27.342950 2.892071 1.249895 1.834310 0.182131 6.647960 0.000000 0.000000 0.000000 17.189930 9.242526 -18.155649 6.217207 4.728338 -9.359365 14.297451 4.026506 -7.135843 1.650600 1.843976 -0.261377 0.000000 0.000000 0.000000 13.633823 3.765531 -7.465500 -11.580027 -5.758994 4.966187 -22.878096 -26.856688 23.213035 0.000000 0.000000 0.000000 13.009019 4.456440 -7.429737 0.496983 2.419706 7.978155 -3.204045 -2.153302 -2.077611 4.236652 -55.659676 1.021502 0.459593 -16.183310 0.749552 0.000000 0.000000 0.000000 13.829338 3.990547 -7.762834 5.405404 11.910652 -11.310652 1.170679 0.457274 -0.809091 -18.610741 45.594996 11.467105 -1.334764 33.935105 0.366123 0.000000 0.000000 0.000000 
-8.623687 93.808907 51.187634 0.000000 0.000000 0.000000 17.417986 8.907937 -16.117066 -75.460565 -1.113292 17.635402 49.544577 4.774671 -6.421601 11.539972 -3.014897 8.506657 -2.658566 0.821925 -1.612748 0.000000 0.000000 0.000000 16.936205 12.476257 -17.791190 -19.891956 -24.387066 -14.792129 42.985669 7.056551 -4.335341 26.890006 4.305327 0.925764 -0.180731 -0.103333 7.739246 0.000000 0.000000 0.000000 15.129844 8.926892 -18.125213 6.325372 2.721869 -9.572341 14.616096 1.751525 -6.743666 1.668862 2.142189 -0.249861 0.000000 0.000000 0.000000 13.878827 1.501505 -7.007379 -11.313167 -5.399650 4.745280 -21.380490 -24.189824 24.194026 0.000000 0.000000 0.000000 13.411379 2.143890 -6.988206 0.460284 1.902590 8.279432 -3.003015 -1.867249 -1.300264 -5.849938 -57.000261 -2.324936 -0.067359 -14.698924 0.821331 0.000000 0.000000 0.000000 14.189689 1.705058 -7.339587 5.463820 11.244774 -13.610651 1.152132 -0.083935 -0.521106 -23.078945 44.783768 11.050773 -1.255316 35.009528 0.275265 0.000000 0.000000 0.000000 
